<svg width="376" height="119" viewBox="0 0 376 119" fill="none" xmlns="http://www.w3.org/2000/svg">
<mask id="mask0_154_1596" style="mask-type:luminance" maskUnits="userSpaceOnUse" x="322" y="4" width="16" height="21">
<path d="M322.684 4.48145H337.361V24.6476H322.684V4.48145Z" fill="white"/>
</mask>
<g mask="url(#mask0_154_1596)">
<mask id="mask1_154_1596" style="mask-type:luminance" maskUnits="userSpaceOnUse" x="317" y="3" width="25" height="22">
<path d="M322.732 24.4175L317.224 11.4335L335.901 3.10718L341.408 16.0912L322.732 24.4175Z" fill="white"/>
</mask>
<g mask="url(#mask1_154_1596)">
<mask id="mask2_154_1596" style="mask-type:luminance" maskUnits="userSpaceOnUse" x="317" y="3" width="25" height="22">
<path d="M322.732 24.4175L317.224 11.4335L335.901 3.10718L341.408 16.0912L322.732 24.4175Z" fill="white"/>
</mask>
<g mask="url(#mask2_154_1596)">
<path d="M322.743 24.4113C324.565 22.482 326.417 20.5701 328.304 18.6958C331.314 16.0388 334.956 13.3542 336.87 9.90437C337.167 9.37171 337.313 8.74902 337.317 8.12383C337.439 6.98848 337.058 5.8969 335.782 5.1029C334.178 4.1051 332.299 4.84782 330.681 5.95566C330.173 6.28201 329.701 6.63587 329.287 6.96722C329.315 6.96347 329.341 6.96847 329.369 6.96597C328.976 7.29857 328.615 7.62868 328.299 7.92752C328.262 7.96128 328.21 8.01129 328.132 8.08507C328.056 8.16134 328.055 8.16384 328.088 8.13383C323.958 12.3064 322.815 18.7058 322.743 24.4113Z" fill="#E06C61"/>
</g>
</g>
</g>
<path d="M46.6496 119C40.7265 119 35.1742 117.845 29.9927 115.534C24.8136 113.221 20.2688 109.752 16.3558 105.131C12.4453 100.507 9.38008 94.6901 7.15891 87.6805C4.94018 80.6721 3.83142 72.5058 3.83142 63.1829C3.83142 57.8388 4.3242 52.4934 5.30976 47.148C6.29532 41.8001 7.80904 36.7423 9.85212 31.9734C11.8976 27.2057 14.436 22.9794 17.4683 19.2945C20.4993 15.6071 24.0757 12.6975 28.1972 10.5668C32.3212 8.43618 36.9916 7.37085 42.2097 7.37085C44.9578 7.37085 47.5827 7.73346 50.0845 8.45618C52.5849 9.1764 55.1562 9.89912 57.7982 10.6218C60.4426 11.3458 63.3505 11.7072 66.5218 11.7072C68.9906 11.7072 70.9471 11.3458 72.3913 10.6218C73.8355 9.89912 75.0674 9.1764 76.0896 8.45618C77.1142 7.73346 78.1546 7.37085 79.2122 7.37085C80.6198 7.37085 81.4297 8.18485 81.6419 9.8116C81.8529 11.4358 81.6931 13.4577 81.1638 15.8785C80.6368 18.2992 79.8806 20.7024 78.895 23.0857C78.3998 24.2435 77.7643 25.5439 76.9873 26.9869C76.2128 28.4311 75.2967 29.8765 74.2404 31.3232C73.1146 32.8412 71.7399 34.4479 70.1177 36.1447C68.4978 37.8427 66.9292 39.6307 65.4143 41.5113C63.8982 43.3894 62.6296 45.3025 61.6087 47.2531C60.5865 49.2037 60.0767 51.1543 60.0767 53.1049C60.0767 54.9129 60.639 56.4846 61.7648 57.8213C62.8931 59.1592 64.3726 59.8269 66.2047 59.8269C67.333 59.8269 68.0026 59.6469 68.2149 59.2868C68.4259 58.9241 68.815 58.7416 69.3809 58.7416C70.2262 58.7416 70.8251 59.4656 71.1764 60.9123C71.5277 62.3564 71.7034 63.6206 71.7034 64.7034C71.7034 67.378 70.9276 69.9075 69.3761 72.2907C67.827 74.6752 65.7668 76.6071 63.1944 78.0875C60.6207 79.568 57.8543 80.3082 54.8952 80.3082C52.0751 80.3082 49.466 79.6055 47.0692 78.1975C44.6748 76.7871 42.7537 74.909 41.3071 72.5608C39.8629 70.2139 39.1408 67.5943 39.1408 64.7034C39.1408 61.4524 39.88 58.6353 41.3608 56.2508C42.8403 53.8676 44.6553 51.8082 46.8058 50.0739C48.955 48.3372 51.1237 46.8554 53.3095 45.6276C55.4953 44.4009 57.3273 43.3006 58.8081 42.3266C60.2877 41.35 61.0281 40.4285 61.0281 39.5607C61.0281 38.1878 60.0401 37.32 58.0665 36.9599C54.4719 36.3797 51.2652 35.4044 48.4451 34.034C45.625 32.6611 42.9806 31.2332 40.5118 29.7527C38.0455 28.2698 35.545 27.0044 33.0079 25.9565C30.4708 24.91 27.6873 24.3861 24.6599 24.3861C22.8962 24.3861 21.4508 24.875 20.3225 25.8515C19.193 26.8256 18.3123 28.0359 17.6781 29.4826C17.0438 30.9268 16.6022 32.3723 16.3558 33.819C16.1119 35.2631 15.9899 36.4898 15.9899 37.5001C15.9899 41.979 16.5339 46.7654 17.6244 51.8595C18.7173 56.9548 20.32 61.9601 22.4351 66.8741C24.5526 71.7856 27.1787 76.2657 30.3147 80.3132C33.4495 84.3582 37.0782 87.5904 41.1998 90.0112C45.3238 92.4294 49.9247 93.6373 55.0025 93.6373C58.7362 93.6373 61.8002 93.0959 64.1946 92.0118C66.5914 90.9289 68.5479 89.5935 70.064 88.0056C71.5789 86.4151 72.8121 84.8271 73.7623 83.2391C74.7149 81.6486 75.5968 80.312 76.4067 79.2279C77.2191 78.1413 78.1546 77.5974 79.2122 77.5974C79.8464 77.5974 80.4441 77.9412 81.0076 78.6277C81.5699 79.3154 81.8517 80.9234 81.8517 83.4542C81.8517 86.9227 81.0759 90.7151 79.5244 94.8326C77.9753 98.9514 75.7041 102.835 72.7084 106.486C69.7127 110.135 66.0291 113.132 61.6575 115.479C57.2883 117.826 52.2861 119 46.6496 119Z" fill="#F7B11E" fill-opacity="0.4"/>
<path d="M42.8182 115.072C36.8951 115.072 31.3428 113.917 26.1613 111.606C20.9822 109.293 16.4374 105.824 12.5244 101.203C8.6139 96.5791 5.54866 90.7624 3.32749 83.7527C1.10876 76.7443 0 68.5781 0 59.2552C0 53.9111 0.49278 48.5657 1.47834 43.2203C2.4639 37.8724 3.97761 32.8146 6.0207 28.0457C8.06623 23.2779 10.6045 19.0516 13.6368 15.3668C16.6679 11.6794 20.2442 8.76975 24.3658 6.63909C28.4898 4.50844 33.1602 3.44312 38.3783 3.44312C41.1264 3.44312 43.7513 3.80573 46.253 4.52845C48.7535 5.24867 51.3248 5.97139 53.9668 6.69411C56.6112 7.41808 59.5191 7.77944 62.6904 7.77944C65.1592 7.77944 67.1157 7.41808 68.5599 6.69411C70.0041 5.97139 71.236 5.24867 72.2582 4.52845C73.2828 3.80573 74.3232 3.44312 75.3807 3.44312C76.7883 3.44312 77.5982 4.25711 77.8105 5.88386C78.0215 7.50811 77.8617 9.52998 77.3323 11.9507C76.8054 14.3715 76.0492 16.7747 75.0636 19.1579C74.5684 20.3158 73.9329 21.6162 73.1559 23.0591C72.3814 24.5033 71.4653 25.9488 70.409 27.3955C69.2832 28.9134 67.9085 30.5202 66.2863 32.2169C64.6664 33.915 63.0978 35.703 61.5829 37.5836C60.0667 39.4617 58.7982 41.3747 57.7773 43.3253C56.7551 45.2759 56.2452 47.2265 56.2452 49.1771C56.2452 50.9852 56.8076 52.5569 57.9334 53.8936C59.0617 55.2315 60.5412 55.8992 62.3733 55.8992C63.5016 55.8992 64.1712 55.7191 64.3834 55.359C64.5945 54.9964 64.9836 54.8139 65.5495 54.8139C66.3948 54.8139 66.9937 55.5378 67.345 56.9845C67.6963 58.4287 67.8719 59.6928 67.8719 60.7757C67.8719 63.4502 67.0962 65.9798 65.5446 68.363C63.9956 70.7475 61.9354 72.6793 59.3629 74.1598C56.7893 75.6402 54.0229 76.3805 51.0637 76.3805C48.2437 76.3805 45.6346 75.6777 43.2378 74.2698C40.8434 72.8594 38.9223 70.9813 37.4757 68.6331C36.0315 66.2861 35.3094 63.6666 35.3094 60.7757C35.3094 57.5247 36.0486 54.7076 37.5294 52.3231C39.0089 49.9399 40.8239 47.8805 42.9743 46.1462C45.1235 44.4094 47.2923 42.9277 49.4781 41.6998C51.6639 40.4732 53.4959 39.3729 54.9767 38.3988C56.4563 37.4223 57.1967 36.5007 57.1967 35.633C57.1967 34.2601 56.2087 33.3923 54.2351 33.0322C50.6405 32.452 47.4338 31.4767 44.6137 30.1063C41.7936 28.7334 39.1492 27.3054 36.6804 25.825C34.2141 24.342 31.7136 23.0766 29.1765 22.0288C26.6394 20.9822 23.8559 20.4583 20.8285 20.4583C19.0647 20.4583 17.6193 20.9472 16.4911 21.9238C15.3616 22.8978 14.4809 24.1082 13.8466 25.5549C13.2124 26.9991 12.7708 28.4445 12.5244 29.8912C12.2805 31.3354 12.1585 32.562 12.1585 33.5723C12.1585 38.0512 12.7025 42.8377 13.793 47.9317C14.8859 53.0271 16.4886 58.0323 18.6037 62.9463C20.7212 67.8578 23.3473 72.338 26.4833 76.3855C29.618 80.4305 33.2468 83.6627 37.3684 86.0834C41.4923 88.5017 46.0932 89.7095 51.1711 89.7095C54.9047 89.7095 57.9688 89.1681 60.3631 88.084C62.7599 87.0012 64.7164 85.6658 66.2326 84.0778C67.7475 82.4873 68.9807 80.8993 69.9309 79.3114C70.8835 77.7209 71.7654 76.3842 72.5753 75.3001C73.3877 74.2135 74.3232 73.6696 75.3807 73.6696C76.015 73.6696 76.6127 74.0135 77.1762 74.6999C77.7385 75.3877 78.0203 76.9957 78.0203 79.5264C78.0203 82.995 77.2445 86.7874 75.693 90.9049C74.1439 95.0237 71.8727 98.9074 68.877 102.558C65.8813 106.207 62.1976 109.204 57.826 111.551C53.4569 113.898 48.4547 115.072 42.8182 115.072Z" fill="#E06C61"/>
<path d="M84.7398 89.293C85.8815 88.3127 86.8 86.8248 87.4964 84.8267C88.1954 82.8261 88.8943 80.6579 89.5944 78.3197C90.6971 74.476 91.6607 70.9712 92.4877 67.8065C93.3171 64.6392 94.0538 61.5571 94.6979 58.5586C95.3419 55.5615 95.9664 52.4418 96.5714 49.2008C97.1788 45.9573 97.8326 42.3737 98.5328 38.4525C98.7145 37.3596 98.7133 36.2856 98.5279 35.2315C98.3449 34.1749 97.9424 33.3447 97.3179 32.7407H121.757C121.168 33.3447 120.773 34.1749 120.571 35.2315C120.369 36.2856 120.359 37.3596 120.542 38.4525C121.241 42.3737 121.893 45.9573 122.498 49.2008C123.106 52.4418 123.733 55.5615 124.377 58.5586C125.021 61.5571 125.755 64.6392 126.582 67.8065C127.412 70.9712 128.378 74.476 129.48 78.3197C130.179 80.6579 130.877 82.8261 131.573 84.8267C132.272 86.8248 133.193 88.3127 134.335 89.293H111.55C112.174 88.5403 112.66 87.6163 113.009 86.5222C113.36 85.4294 113.536 84.299 113.536 83.1312C113.536 82.1884 113.37 80.4341 113.038 77.8695C112.709 75.3063 112.268 72.4216 111.716 69.2169H103.607C104.563 71.5914 105.437 73.9471 106.227 76.2841C107.017 78.6223 107.413 80.9592 107.413 83.2962C107.413 84.1665 107.302 85.0743 107.081 86.017C106.859 86.9573 106.464 87.7401 105.895 88.3628C105.326 88.983 104.49 89.293 103.387 89.293H84.7398ZM102.558 66.6711H111.218C110.703 63.9578 110.135 61.2532 109.511 58.5586C108.886 55.8616 108.214 53.4008 107.496 51.1764C106.78 48.9532 106.044 47.1726 105.29 45.8347C104.535 44.4943 103.773 43.8241 103.002 43.8241C102.046 43.8241 101.291 44.2392 100.738 45.0695C100.184 45.8998 99.7879 46.9838 99.5476 48.3205C99.3098 49.6584 99.1914 51.0813 99.1914 52.5918C99.1914 55.0801 99.5305 57.4921 100.211 59.829C100.894 62.1672 101.676 64.4479 102.558 66.6711Z" fill="#F7B11E" fill-opacity="0.4"/>
<path d="M134.882 32.7407H157.116C161.601 32.7407 165.196 33.4684 167.898 34.9214C170.601 36.3718 172.569 38.3324 173.802 40.8032C175.034 43.2714 175.651 46.0323 175.651 49.0857C175.651 51.2739 175.365 53.4321 174.793 55.5627C174.223 57.6909 173.314 59.6127 172.065 61.3295C170.816 63.0438 169.216 64.4192 167.264 65.4557C165.315 66.4936 162.962 67.0112 160.204 67.0112C158.106 67.0112 156.294 66.7011 154.769 66.0809C153.243 65.4582 151.929 64.6843 150.827 63.7602C149.724 62.8374 148.758 61.9047 147.929 60.9644C147.102 60.0216 146.367 59.2376 145.723 58.6136C145.079 57.991 144.445 57.6784 143.821 57.6784C143.085 57.6784 142.587 57.8684 142.328 58.2485C142.07 58.6262 141.942 59.0388 141.942 59.4889C141.942 60.2429 142.328 60.9981 143.098 61.7546C143.872 62.5086 144.911 63.2438 146.216 63.9603C147.524 64.6743 148.968 65.3607 150.549 66.0209C152.13 66.6811 153.712 67.3313 155.296 67.9715C156.912 68.5755 158.631 69.2457 160.453 69.9821C162.274 70.7161 164.049 71.5364 165.776 72.4429C167.503 73.3469 169.066 74.3635 170.465 75.4938C171.863 76.6242 172.985 77.9071 173.831 79.34C174.677 80.7742 175.1 82.3759 175.1 84.1465C175.1 85.957 174.833 87.2674 174.3 88.0777C173.765 88.8879 172.819 89.293 171.46 89.293H159.541C159.172 89.293 158.814 89.2005 158.462 89.013C158.114 88.8229 157.94 88.4828 157.94 87.9926C157.94 87.3124 158.023 86.7198 158.189 86.2121C158.355 85.702 158.511 85.1555 158.658 84.5716C158.806 83.9889 158.882 83.2249 158.882 82.2809C158.882 81.038 158.504 79.7276 157.75 78.3497C156.995 76.973 156.001 75.6164 154.769 74.2785C153.536 72.9418 152.203 71.6802 150.768 70.4923C149.336 69.3019 147.94 68.2453 146.577 67.3213C145.217 66.3985 144.004 65.6733 142.937 65.1457C141.87 64.6192 141.115 64.3554 140.674 64.3554C140.305 64.3554 140.049 64.508 139.903 64.8105C139.756 65.1106 139.683 65.3357 139.683 65.4858C139.683 66.426 140.041 67.2751 140.757 68.0315C141.475 68.7855 142.403 69.5207 143.542 70.2372C144.684 70.9512 145.889 71.7152 147.158 72.5279C148.426 73.3382 149.622 74.2522 150.744 75.2688C151.866 76.2866 152.785 77.4732 153.501 78.8298C154.219 80.1878 154.579 81.7707 154.579 83.5813C154.579 84.3353 154.44 85.1555 154.164 86.0421C153.887 86.9298 153.464 87.6926 152.896 88.3328C152.326 88.9729 151.581 89.293 150.661 89.293H134.936C135.674 88.5403 136.18 87.645 136.453 86.6072C136.729 85.5707 136.868 84.2415 136.868 82.621V72.948L136.814 61.0144V39.4128C136.814 37.7923 136.675 36.4644 136.4 35.4265C136.123 34.39 135.616 33.4947 134.882 32.7407ZM153.915 44.5593C152.516 44.5593 150.989 44.6169 149.334 44.7294C147.681 44.8432 146.119 45.0795 144.645 45.4396C143.174 45.7972 141.969 46.3524 141.03 47.1051C140.093 47.8591 139.625 48.8782 139.625 50.1611C139.625 51.4415 140.12 52.4505 141.113 53.187C142.108 53.921 143.423 54.4761 145.06 54.8525C146.696 55.2301 148.48 55.4752 150.412 55.5877C152.344 55.7015 154.267 55.7578 156.179 55.7578C158.092 55.7578 160.021 55.7015 161.97 55.5877C163.918 55.4752 165.71 55.2301 167.347 54.8525C168.983 54.4761 170.297 53.921 171.289 53.187C172.285 52.4505 172.782 51.4415 172.782 50.1611C172.782 49.1407 172.377 48.293 171.567 47.6153C170.758 46.9351 169.681 46.3887 168.338 45.9748C166.997 45.5584 165.499 45.2571 163.844 45.0695C162.188 44.8794 160.497 44.7482 158.77 44.6744C157.043 44.5981 155.424 44.5593 153.915 44.5593Z" fill="#F7B11E" fill-opacity="0.4"/>
<path d="M177.578 32.7407H194.513C197.86 32.7407 200.829 33.496 203.422 35.0064C206.018 36.5144 208.252 38.54 210.126 41.0833C212.002 43.6278 213.537 46.4449 214.732 49.5359C215.928 52.6268 216.811 55.7853 217.381 59.0088C217.949 62.2335 218.235 65.2782 218.235 68.1416C218.235 72.3266 217.847 75.7964 217.073 78.5498C216.303 81.3006 215.172 83.46 213.683 85.0267C212.196 86.591 210.394 87.6926 208.277 88.3328C206.162 88.9729 203.745 89.293 201.026 89.293H177.578C178.312 88.5403 178.818 87.645 179.095 86.6072C179.371 85.5707 179.51 84.2415 179.51 82.621V39.4128C179.51 37.7923 179.371 36.4644 179.095 35.4265C178.818 34.39 178.312 33.4947 177.578 32.7407ZM198.265 35.9617C196.573 35.9617 195.416 37.0095 194.791 39.1027C194.167 41.1971 193.854 44.7319 193.854 49.7059C193.854 49.896 193.854 50.3686 193.854 51.1214C193.854 51.8753 193.854 52.7706 193.854 53.8072C193.854 54.845 193.854 55.8816 193.854 56.9181C193.854 57.9559 193.854 58.8512 193.854 59.604C193.854 60.3579 193.854 60.8281 193.854 61.0144C193.854 61.2044 193.854 61.6771 193.854 62.4298C193.854 63.1838 193.854 64.0791 193.854 65.1156C193.854 66.1535 193.854 67.19 193.854 68.2266C193.854 69.2644 193.854 70.1597 193.854 70.9124C193.854 71.6664 193.854 72.1378 193.854 72.3279C193.854 77.3031 194.147 80.8942 194.732 83.1012C195.32 85.3056 196.388 86.4072 197.933 86.4072C200.031 86.4072 201.53 84.269 202.432 79.9902C203.332 75.7126 203.783 69.4257 203.783 61.1294C203.783 58.9425 203.755 56.6806 203.7 54.3423C203.644 52.0054 203.516 49.7447 203.315 47.5603C203.112 45.3733 202.808 43.4127 202.402 41.6785C201.999 39.9417 201.466 38.555 200.802 37.5172C200.141 36.4806 199.296 35.9617 198.265 35.9617Z" fill="#F7B11E" fill-opacity="0.4"/>
<path d="M219.612 89.293C220.754 88.3127 221.672 86.8248 222.369 84.8267C223.068 82.8261 223.767 80.6579 224.467 78.3197C225.569 74.476 226.533 70.9712 227.36 67.8065C228.189 64.6392 228.926 61.5571 229.57 58.5586C230.214 55.5615 230.839 52.4418 231.444 49.2008C232.051 45.9573 232.705 42.3737 233.405 38.4525C233.587 37.3596 233.586 36.2856 233.4 35.2315C233.217 34.1749 232.815 33.3447 232.19 32.7407H256.629C256.04 33.3447 255.645 34.1749 255.444 35.2315C255.241 36.2856 255.231 37.3596 255.414 38.4525C256.113 42.3737 256.766 45.9573 257.371 49.2008C257.978 52.4418 258.605 55.5615 259.249 58.5586C259.893 61.5571 260.628 64.6392 261.455 67.8065C262.284 70.9712 263.25 74.476 264.353 78.3197C265.052 80.6579 265.749 82.8261 266.446 84.8267C267.145 86.8248 268.066 88.3127 269.207 89.293H246.422C247.047 88.5403 247.532 87.6163 247.881 86.5222C248.232 85.4294 248.408 84.299 248.408 83.1312C248.408 82.1884 248.242 80.4341 247.91 77.8695C247.581 75.3063 247.141 72.4216 246.588 69.2169H238.479C239.436 71.5914 240.309 73.9471 241.099 76.2841C241.89 78.6223 242.285 80.9592 242.285 83.2962C242.285 84.1665 242.174 85.0743 241.953 86.017C241.731 86.9573 241.336 87.7401 240.768 88.3628C240.198 88.983 239.362 89.293 238.26 89.293H219.612ZM237.43 66.6711H246.091C245.576 63.9578 245.007 61.2532 244.383 58.5586C243.758 55.8616 243.086 53.4008 242.368 51.1764C241.652 48.9532 240.916 47.1726 240.163 45.8347C239.408 44.4943 238.645 43.8241 237.874 43.8241C236.918 43.8241 236.163 44.2392 235.61 45.0695C235.057 45.8998 234.66 46.9838 234.42 48.3205C234.182 49.6584 234.064 51.0813 234.064 52.5918C234.064 55.0801 234.403 57.4921 235.084 59.829C235.767 62.1672 236.548 64.4479 237.43 66.6711Z" fill="#F7B11E" fill-opacity="0.4"/>
<path d="M269.755 32.7407H291.988C296.473 32.7407 300.068 33.4684 302.771 34.9214C305.474 36.3718 307.441 38.3324 308.674 40.8032C309.906 43.2714 310.524 46.0323 310.524 49.0857C310.524 51.2739 310.192 53.4608 309.528 55.6477C308.867 57.8322 307.838 59.819 306.44 61.6096C305.044 63.4001 303.225 64.8431 300.98 65.9359C298.736 67.03 296.013 67.5764 292.813 67.5764C290.385 67.5764 288.244 67.2463 286.387 66.5861C284.529 65.9259 282.929 65.1632 281.586 64.2954C280.246 63.4289 279.115 62.6649 278.195 62.0047C277.274 61.3445 276.539 61.0144 275.99 61.0144C275.143 61.0144 274.721 61.487 274.721 62.4298C274.721 63.6377 275.069 64.7505 275.765 65.7708C276.464 66.7887 277.376 67.769 278.498 68.7117C279.62 69.652 280.805 70.6223 282.055 71.6226C283.306 72.6204 284.494 73.6933 285.616 74.8436C286.738 75.994 287.647 77.2869 288.344 78.7198C289.042 80.1502 289.393 81.7707 289.393 83.5813C289.393 84.3353 289.253 85.1555 288.978 86.0421C288.705 86.9298 288.281 87.6926 287.709 88.3328C287.14 88.9729 286.397 89.293 285.48 89.293H269.755C270.489 88.5403 270.995 87.645 271.272 86.6072C271.548 85.5707 271.687 84.2415 271.687 82.621V39.4128C271.687 37.7923 271.548 36.4644 271.272 35.4265C270.995 34.39 270.489 33.4947 269.755 32.7407ZM288.788 44.5593C287.388 44.5593 285.861 44.6169 284.206 44.7294C282.553 44.8432 280.991 45.0795 279.517 45.4396C278.046 45.7972 276.841 46.3524 275.902 47.1051C274.965 47.8591 274.497 48.8782 274.497 50.1611C274.497 51.4415 274.992 52.4505 275.985 53.187C276.98 53.921 278.295 54.4761 279.932 54.8525C281.568 55.2301 283.352 55.4752 285.284 55.5877C287.216 55.7015 289.139 55.7578 291.051 55.7578C292.964 55.7578 294.894 55.7015 296.843 55.5877C298.791 55.4752 300.583 55.2301 302.219 54.8525C303.855 54.4761 305.169 53.921 306.162 53.187C307.157 52.4505 307.655 51.4415 307.655 50.1611C307.655 49.1407 307.25 48.293 306.44 47.6153C305.63 46.9351 304.553 46.3887 303.21 45.9748C301.869 45.5584 300.372 45.2571 298.716 45.0695C297.06 44.8794 295.369 44.7482 293.642 44.6744C291.915 44.5981 290.296 44.5593 288.788 44.5593Z" fill="#F7B11E" fill-opacity="0.4"/>
<path d="M312.174 89.293C312.909 88.5403 313.415 87.645 313.692 86.6072C313.967 85.5707 314.107 84.2415 314.107 82.621V39.4128C314.107 37.7923 313.967 36.4644 313.692 35.4265C313.415 34.39 312.909 33.4947 312.174 32.7407H330.656C329.921 33.4947 329.414 34.39 329.139 35.4265C328.862 36.4644 328.724 37.7923 328.724 39.4128V82.621C328.724 84.2415 328.862 85.5707 329.139 86.6072C329.414 87.645 329.921 88.5403 330.656 89.293H312.174Z" fill="#F7B11E" fill-opacity="0.4"/>
<path d="M332.587 61.0143C332.587 56.643 333.1 52.6768 334.128 49.1157C335.159 45.5521 336.631 42.4786 338.544 39.8978C340.456 37.3145 342.745 35.3339 345.409 33.956C348.075 32.5793 351.046 31.8904 354.323 31.8904C357.559 31.8904 360.509 32.5793 363.173 33.956C365.839 35.3339 368.13 37.3145 370.043 39.8978C371.955 42.4786 373.425 45.5521 374.453 49.1157C375.484 52.6768 376 56.643 376 61.0143C376 65.3894 375.484 69.3594 374.453 72.923C373.425 76.484 371.955 79.5575 370.043 82.1408C368.13 84.7216 365.839 86.7009 363.173 88.0776C360.509 89.4543 357.559 90.1432 354.323 90.1432C351.046 90.1432 348.075 89.4543 345.409 88.0776C342.745 86.7009 340.456 84.7216 338.544 82.1408C336.631 79.5575 335.159 76.484 334.128 72.923C333.1 69.3594 332.587 65.3894 332.587 61.0143ZM349.853 35.7366C348.565 35.7366 347.553 36.4443 346.819 37.8572C346.083 39.2714 345.585 41.1857 345.326 43.599C345.068 46.0135 345.023 48.7193 345.189 51.7165C345.355 54.7111 345.694 57.8121 346.209 61.0193C346.726 64.224 347.38 67.325 348.17 70.3222C348.961 73.3168 349.861 76.0214 350.873 78.4346C351.884 80.8491 352.969 82.7635 354.127 84.1764C355.285 85.5906 356.471 86.2971 357.684 86.2971C359.228 86.2971 360.462 85.5906 361.382 84.1764C362.302 82.7635 362.946 80.8491 363.315 78.4346C363.682 76.0214 363.81 73.3168 363.7 70.3222C363.589 67.325 363.276 64.224 362.758 61.0193C362.244 57.8121 361.554 54.7111 360.69 51.7165C359.827 48.7193 358.836 46.0135 357.713 43.599C356.591 41.1857 355.368 39.2714 354.044 37.8572C352.72 36.4443 351.323 35.7366 349.853 35.7366Z" fill="#F7B11E" fill-opacity="0.4"/>
<path d="M81.9604 86.4439C83.1021 85.4636 84.0206 83.9757 84.7171 81.9776C85.416 79.9769 86.1149 77.8088 86.8151 75.4706C87.9177 71.6269 88.8813 68.1221 89.7083 64.9573C90.5378 61.7901 91.2745 58.7079 91.9185 55.7095C92.5625 52.7123 93.1871 49.5926 93.7921 46.3516C94.3995 43.1082 95.0533 39.5246 95.7534 35.6034C95.9352 34.5105 95.9339 33.4364 95.7485 32.3824C95.5656 31.3258 95.1631 30.4955 94.5385 29.8916H118.978C118.388 30.4955 117.993 31.3258 117.792 32.3824C117.589 33.4364 117.58 34.5105 117.763 35.6034C118.462 39.5246 119.114 43.1082 119.719 46.3516C120.327 49.5926 120.954 52.7123 121.598 55.7095C122.242 58.7079 122.976 61.7901 123.803 64.9573C124.632 68.1221 125.598 71.6269 126.701 75.4706C127.4 77.8088 128.098 79.9769 128.794 81.9776C129.493 83.9757 130.414 85.4636 131.556 86.4439H108.771C109.395 85.6912 109.881 84.7672 110.229 83.6731C110.581 82.5802 110.756 81.4499 110.756 80.282C110.756 79.3393 110.59 77.585 110.259 75.0204C109.929 72.4571 109.489 69.5725 108.937 66.3678H100.828C101.784 68.7423 102.657 71.098 103.448 73.4349C104.238 75.7732 104.633 78.1101 104.633 80.4471C104.633 81.3174 104.522 82.2251 104.301 83.1679C104.079 84.1082 103.684 84.891 103.116 85.5136C102.546 86.1338 101.711 86.4439 100.608 86.4439H81.9604ZM99.7786 63.822H108.439C107.924 61.1087 107.356 58.4041 106.731 55.7095C106.107 53.0124 105.435 50.5517 104.716 48.3272C104 46.1041 103.265 44.3235 102.511 42.9856C101.756 41.6452 100.993 40.975 100.223 40.975C99.2663 40.975 98.5113 41.3901 97.9587 42.2204C97.405 43.0506 97.0085 44.1347 96.7683 45.4714C96.5304 46.8093 96.4121 48.2322 96.4121 49.7427C96.4121 52.2309 96.7512 54.6429 97.4318 56.9799C98.1149 59.3181 98.8967 61.5988 99.7786 63.822Z" fill="#E06C61"/>
<path d="M132.103 29.8916H154.336C158.821 29.8916 162.416 30.6193 165.119 32.0723C167.822 33.5227 169.789 35.4833 171.023 37.9541C172.255 40.4223 172.872 43.1832 172.872 46.2366C172.872 48.4248 172.585 50.5829 172.013 52.7136C171.443 54.8417 170.535 56.7636 169.286 58.4804C168.037 60.1946 166.436 61.5701 164.485 62.6066C162.536 63.6444 160.183 64.1621 157.425 64.1621C155.327 64.1621 153.514 63.852 151.99 63.2318C150.464 62.6091 149.15 61.8351 148.047 60.9111C146.945 59.9883 145.979 59.0555 145.149 58.1152C144.322 57.1725 143.588 56.3885 142.944 55.7645C142.3 55.1418 141.666 54.8292 141.041 54.8292C140.306 54.8292 139.808 55.0193 139.548 55.3994C139.291 55.777 139.163 56.1897 139.163 56.6398C139.163 57.3938 139.548 58.149 140.319 58.9055C141.092 59.6595 142.132 60.3947 143.437 61.1112C144.744 61.8251 146.188 62.5116 147.769 63.1718C149.35 63.832 150.932 64.4822 152.517 65.1224C154.133 65.7263 155.851 66.3965 157.674 67.133C159.495 67.867 161.27 68.6872 162.997 69.5938C164.724 70.4978 166.286 71.5144 167.685 72.6447C169.083 73.775 170.205 75.0579 171.052 76.4909C171.897 77.9251 172.32 79.5268 172.32 81.2974C172.32 83.1079 172.053 84.4183 171.52 85.2286C170.986 86.0388 170.04 86.4439 168.681 86.4439H156.761C156.393 86.4439 156.034 86.3514 155.683 86.1638C155.334 85.9738 155.161 85.6337 155.161 85.1435C155.161 84.4633 155.244 83.8706 155.41 83.363C155.576 82.8528 155.732 82.3064 155.878 81.7225C156.027 81.1398 156.103 80.3758 156.103 79.4318C156.103 78.1889 155.725 76.8785 154.971 75.5006C154.216 74.1239 153.222 72.7672 151.99 71.4293C150.756 70.0927 149.423 68.831 147.989 67.6432C146.557 66.4528 145.16 65.3962 143.798 64.4722C142.438 63.5494 141.224 62.8242 140.158 62.2965C139.091 61.7701 138.336 61.5063 137.894 61.5063C137.526 61.5063 137.27 61.6588 137.123 61.9614C136.977 62.2615 136.904 62.4866 136.904 62.6366C136.904 63.5769 137.261 64.4259 137.977 65.1824C138.696 65.9364 139.624 66.6716 140.763 67.3881C141.905 68.1021 143.11 68.866 144.378 69.6788C145.647 70.489 146.842 71.4031 147.964 72.4196C149.087 73.4374 150.005 74.6241 150.721 75.9807C151.44 77.3386 151.799 78.9216 151.799 80.7322C151.799 81.4862 151.66 82.3064 151.385 83.1929C151.108 84.0807 150.684 84.8434 150.116 85.4836C149.546 86.1238 148.801 86.4439 147.882 86.4439H132.156C132.894 85.6912 133.401 84.7959 133.674 83.7581C133.949 82.7215 134.089 81.3924 134.089 79.7719V70.0989L134.035 58.1653V36.5636C134.035 34.9431 133.896 33.6152 133.62 32.5774C133.343 31.5409 132.837 30.6456 132.103 29.8916ZM151.136 41.7102C149.737 41.7102 148.21 41.7677 146.554 41.8803C144.902 41.9941 143.339 42.2304 141.866 42.5905C140.395 42.9481 139.19 43.5033 138.25 44.256C137.314 45.01 136.845 46.029 136.845 47.3119C136.845 48.5923 137.34 49.6014 138.333 50.3379C139.329 51.0718 140.643 51.627 142.28 52.0034C143.916 52.381 145.701 52.6261 147.633 52.7386C149.565 52.8524 151.487 52.9087 153.4 52.9087C155.312 52.9087 157.242 52.8524 159.191 52.7386C161.139 52.6261 162.931 52.381 164.568 52.0034C166.203 51.627 167.517 51.0718 168.51 50.3379C169.505 49.6014 170.003 48.5923 170.003 47.3119C170.003 46.2916 169.598 45.4439 168.788 44.7662C167.978 44.086 166.901 43.5395 165.558 43.1257C164.218 42.7093 162.72 42.4079 161.065 42.2204C159.408 42.0303 157.718 41.899 155.99 41.8253C154.263 41.749 152.645 41.7102 151.136 41.7102Z" fill="#E06C61"/>
<path d="M174.799 29.8916H191.734C195.081 29.8916 198.05 30.6468 200.643 32.1573C203.238 33.6653 205.473 35.6909 207.347 38.2342C209.223 40.7787 210.758 43.5958 211.952 46.6867C213.149 49.7777 214.032 52.9362 214.602 56.1596C215.17 59.3844 215.456 62.4291 215.456 65.2924C215.456 69.4775 215.068 72.9473 214.294 75.7006C213.523 78.4515 212.393 80.6109 210.903 82.1776C209.417 83.7419 207.615 84.8434 205.497 85.4836C203.382 86.1238 200.966 86.4439 198.247 86.4439H174.799C175.533 85.6912 176.039 84.7959 176.316 83.7581C176.592 82.7215 176.731 81.3924 176.731 79.7719V36.5636C176.731 34.9431 176.592 33.6152 176.316 32.5774C176.039 31.5409 175.533 30.6456 174.799 29.8916ZM195.486 33.1126C193.794 33.1126 192.636 34.1604 192.012 36.2536C191.387 38.3479 191.075 41.8828 191.075 46.8568C191.075 47.0469 191.075 47.5195 191.075 48.2722C191.075 49.0262 191.075 49.9215 191.075 50.9581C191.075 51.9959 191.075 53.0324 191.075 54.069C191.075 55.1068 191.075 56.0021 191.075 56.7548C191.075 57.5088 191.075 57.979 191.075 58.1653C191.075 58.3553 191.075 58.828 191.075 59.5807C191.075 60.3347 191.075 61.23 191.075 62.2665C191.075 63.3043 191.075 64.3409 191.075 65.3775C191.075 66.4153 191.075 67.3106 191.075 68.0633C191.075 68.8173 191.075 69.2887 191.075 69.4787C191.075 74.454 191.368 78.0451 191.953 80.252C192.541 82.4565 193.609 83.558 195.154 83.558C197.252 83.558 198.751 81.4199 199.652 77.1411C200.553 72.8635 201.004 66.5766 201.004 58.2803C201.004 56.0934 200.976 53.8314 200.921 51.4932C200.865 49.1563 200.737 46.8956 200.535 44.7111C200.333 42.5242 200.029 40.5636 199.623 38.8293C199.219 37.0926 198.686 35.7059 198.023 34.6681C197.362 33.6315 196.516 33.1126 195.486 33.1126Z" fill="#E06C61"/>
<path d="M216.833 86.4439C217.974 85.4636 218.893 83.9757 219.589 81.9776C220.288 79.9769 220.987 77.8088 221.687 75.4706C222.79 71.6269 223.754 68.1221 224.581 64.9573C225.41 61.7901 226.147 58.7079 226.791 55.7095C227.435 52.7123 228.059 49.5926 228.664 46.3516C229.272 43.1082 229.926 39.5246 230.626 35.6034C230.807 34.5105 230.806 33.4364 230.621 32.3824C230.438 31.3258 230.035 30.4955 229.411 29.8916H253.85C253.261 30.4955 252.865 31.3258 252.664 32.3824C252.462 33.4364 252.452 34.5105 252.635 35.6034C253.334 39.5246 253.986 43.1082 254.591 46.3516C255.199 49.5926 255.826 52.7123 256.47 55.7095C257.114 58.7079 257.848 61.7901 258.675 64.9573C259.505 68.1221 260.471 71.6269 261.573 75.4706C262.272 77.8088 262.97 79.9769 263.666 81.9776C264.365 83.9757 265.286 85.4636 266.428 86.4439H243.643C244.267 85.6912 244.753 84.7672 245.102 83.6731C245.453 82.5802 245.629 81.4499 245.629 80.282C245.629 79.3393 245.463 77.585 245.131 75.0204C244.802 72.4571 244.361 69.5725 243.809 66.3678H235.7C236.656 68.7423 237.53 71.098 238.32 73.4349C239.11 75.7732 239.506 78.1101 239.506 80.4471C239.506 81.3174 239.395 82.2251 239.174 83.1679C238.952 84.1082 238.557 84.891 237.988 85.5136C237.419 86.1338 236.583 86.4439 235.48 86.4439H216.833ZM234.651 63.822H243.311C242.796 61.1087 242.228 58.4041 241.604 55.7095C240.979 53.0124 240.307 50.5517 239.588 48.3272C238.872 46.1041 238.137 44.3235 237.383 42.9856C236.628 41.6452 235.866 40.975 235.095 40.975C234.139 40.975 233.384 41.3901 232.831 42.2204C232.277 43.0506 231.881 44.1347 231.641 45.4714C231.403 46.8093 231.284 48.2322 231.284 49.7427C231.284 52.2309 231.623 54.6429 232.304 56.9799C232.987 59.3181 233.769 61.5988 234.651 63.822Z" fill="#E06C61"/>
<path d="M266.975 29.8916H289.209C293.694 29.8916 297.288 30.6193 299.991 32.0723C302.694 33.5227 304.662 35.4833 305.895 37.9541C307.127 40.4223 307.744 43.1832 307.744 46.2366C307.744 48.4248 307.412 50.6117 306.749 52.7986C306.088 54.983 305.058 56.9699 303.66 58.7604C302.265 60.551 300.445 61.9939 298.201 63.0868C295.956 64.1809 293.234 64.7273 290.033 64.7273C287.606 64.7273 285.464 64.3972 283.608 63.737C281.75 63.0768 280.15 62.314 278.807 61.4463C277.466 60.5798 276.335 59.8158 275.416 59.1556C274.495 58.4954 273.759 58.1653 273.21 58.1653C272.364 58.1653 271.942 58.6379 271.942 59.5807C271.942 60.7886 272.289 61.9014 272.986 62.9217C273.685 63.9395 274.596 64.9198 275.718 65.8626C276.84 66.8029 278.026 67.7732 279.275 68.7735C280.526 69.7713 281.714 70.8442 282.837 71.9945C283.959 73.1449 284.868 74.4377 285.564 75.8707C286.263 77.3011 286.613 78.9216 286.613 80.7322C286.613 81.4862 286.474 82.3064 286.198 83.1929C285.925 84.0807 285.502 84.8434 284.93 85.4836C284.36 86.1238 283.617 86.4439 282.7 86.4439H266.975C267.709 85.6912 268.215 84.7959 268.492 83.7581C268.768 82.7215 268.907 81.3924 268.907 79.7719V36.5636C268.907 34.9431 268.768 33.6152 268.492 32.5774C268.215 31.5409 267.709 30.6456 266.975 29.8916ZM286.008 41.7102C284.609 41.7102 283.082 41.7677 281.427 41.8803C279.774 41.9941 278.211 42.2304 276.738 42.5905C275.267 42.9481 274.062 43.5033 273.123 44.256C272.186 45.01 271.717 46.029 271.717 47.3119C271.717 48.5923 272.213 49.6014 273.205 50.3379C274.201 51.0718 275.516 51.627 277.153 52.0034C278.788 52.381 280.573 52.6261 282.505 52.7386C284.437 52.8524 286.359 52.9087 288.272 52.9087C290.184 52.9087 292.114 52.8524 294.063 52.7386C296.011 52.6261 297.803 52.381 299.44 52.0034C301.076 51.627 302.389 51.0718 303.382 50.3379C304.377 49.6014 304.875 48.5923 304.875 47.3119C304.875 46.2916 304.47 45.4439 303.66 44.7662C302.85 44.086 301.773 43.5395 300.43 43.1257C299.09 42.7093 297.592 42.4079 295.937 42.2204C294.28 42.0303 292.59 41.899 290.863 41.8253C289.135 41.749 287.517 41.7102 286.008 41.7102Z" fill="#E06C61"/>
<path d="M309.395 86.4439C310.129 85.6912 310.635 84.7959 310.912 83.7581C311.188 82.7215 311.327 81.3924 311.327 79.7719V36.5636C311.327 34.9431 311.188 33.6152 310.912 32.5774C310.635 31.5409 310.129 30.6456 309.395 29.8916H327.877C327.141 30.6456 326.635 31.5409 326.359 32.5774C326.082 33.6152 325.945 34.9431 325.945 36.5636V79.7719C325.945 81.3924 326.082 82.7215 326.359 83.7581C326.635 84.7959 327.141 85.6912 327.877 86.4439H309.395Z" fill="#E06C61"/>
<path d="M329.807 58.1654C329.807 53.7941 330.321 49.8279 331.349 46.2668C332.38 42.7032 333.852 39.6297 335.764 37.049C337.677 34.4657 339.965 32.4851 342.629 31.1071C345.296 29.7305 348.267 29.0415 351.543 29.0415C354.779 29.0415 357.73 29.7305 360.394 31.1071C363.06 32.4851 365.351 34.4657 367.263 37.049C369.176 39.6297 370.646 42.7032 371.674 46.2668C372.705 49.8279 373.221 53.7941 373.221 58.1654C373.221 62.5405 372.705 66.5105 371.674 70.0741C370.646 73.6352 369.176 76.7086 367.263 79.2919C365.351 81.8727 363.06 83.852 360.394 85.2287C357.73 86.6054 354.779 87.2943 351.543 87.2943C348.267 87.2943 345.296 86.6054 342.629 85.2287C339.965 83.852 337.677 81.8727 335.764 79.2919C333.852 76.7086 332.38 73.6352 331.349 70.0741C330.321 66.5105 329.807 62.5405 329.807 58.1654ZM347.074 32.8877C345.786 32.8877 344.773 33.5954 344.039 35.0083C343.304 36.4225 342.806 38.3369 342.546 40.7501C342.289 43.1646 342.244 45.8704 342.41 48.8676C342.576 51.8622 342.915 54.9632 343.429 58.1704C343.947 61.3752 344.6 64.4761 345.391 67.4733C346.181 70.4679 347.081 73.1725 348.094 75.5858C349.105 78.0003 350.189 79.9146 351.348 81.3275C352.506 82.7417 353.691 83.4482 354.905 83.4482C356.449 83.4482 357.682 82.7417 358.603 81.3275C359.523 79.9146 360.167 78.0003 360.535 75.5858C360.902 73.1725 361.03 70.4679 360.921 67.4733C360.81 64.4761 360.496 61.3752 359.979 58.1704C359.464 54.9632 358.775 51.8622 357.91 48.8676C357.048 45.8704 356.056 43.1646 354.934 40.7501C353.812 38.3369 352.588 36.4225 351.265 35.0083C349.94 33.5954 348.544 32.8877 347.074 32.8877Z" fill="#E06C61"/>
<mask id="mask3_154_1596" style="mask-type:luminance" maskUnits="userSpaceOnUse" x="312" y="0" width="10" height="24">
<path d="M312.692 0H321.123V23.6873H312.692V0Z" fill="white"/>
</mask>
<g mask="url(#mask3_154_1596)">
<mask id="mask4_154_1596" style="mask-type:luminance" maskUnits="userSpaceOnUse" x="306" y="-2" width="23" height="26">
<path d="M318.608 23.6222L306.367 17.0652L315.799 -1.43921L328.04 5.1178L318.608 23.6222Z" fill="white"/>
</mask>
<g mask="url(#mask4_154_1596)">
<mask id="mask5_154_1596" style="mask-type:luminance" maskUnits="userSpaceOnUse" x="306" y="-2" width="23" height="26">
<path d="M318.608 23.6222L306.367 17.0652L315.799 -1.43921L328.04 5.1178L318.608 23.6222Z" fill="white"/>
</mask>
<g mask="url(#mask5_154_1596)">
<path d="M318.614 23.6097C318.849 20.9352 319.12 18.2556 319.44 15.5823C320.153 11.5773 321.343 7.14345 320.718 3.22475C320.623 2.62081 320.355 2.04189 319.975 1.55299C319.374 0.590192 318.409 -0.013743 316.93 0.19132C315.071 0.446398 314.062 2.23445 313.483 4.13878C313.287 4.71896 313.137 5.29788 313.018 5.82305C313.039 5.80179 313.061 5.78929 313.081 5.76928C312.979 6.28069 312.901 6.76959 312.837 7.20722C312.83 7.25598 312.82 7.32976 312.804 7.43604C312.792 7.54357 312.793 7.54607 312.8 7.50231C312.143 13.4079 315.174 19.1246 318.614 23.6097Z" fill="#E06C61"/>
</g>
</g>
</g>
<mask id="mask6_154_1596" style="mask-type:luminance" maskUnits="userSpaceOnUse" x="298" y="5" width="18" height="19">
<path d="M298.328 5.76196H315.815V23.6875H298.328V5.76196Z" fill="white"/>
</mask>
<g mask="url(#mask6_154_1596)">
<mask id="mask7_154_1596" style="mask-type:luminance" maskUnits="userSpaceOnUse" x="297" y="3" width="19" height="24">
<path d="M315.706 23.4634L302.31 26.9069L297.355 6.65696L310.752 3.21216L315.706 23.4634Z" fill="white"/>
</mask>
<g mask="url(#mask7_154_1596)">
<mask id="mask8_154_1596" style="mask-type:luminance" maskUnits="userSpaceOnUse" x="297" y="3" width="19" height="24">
<path d="M315.706 23.4634L302.31 26.9069L297.355 6.65696L310.752 3.21216L315.706 23.4634Z" fill="white"/>
</mask>
<g mask="url(#mask8_154_1596)">
<path d="M315.703 23.4495C314.144 21.2913 312.608 19.1056 311.114 16.8912C309.049 13.4114 307.062 9.28887 304.055 6.7881C303.592 6.40173 303.016 6.15165 302.416 6.04537C301.343 5.73528 300.23 5.94159 299.257 7.1032C298.035 8.56114 298.441 10.5843 299.242 12.4011C299.473 12.9675 299.736 13.5027 299.987 13.9766C299.989 13.9465 299.997 13.9215 300 13.894C300.255 14.3442 300.513 14.763 300.75 15.1332C300.777 15.1744 300.816 15.2369 300.874 15.327C300.934 15.4157 300.936 15.417 300.913 15.3795C304.253 20.2397 310.225 22.4429 315.703 23.4495Z" fill="#E06C61"/>
</g>
</g>
</g>
</svg>
